<svg id="reply" xmlns="http://www.w3.org/2000/svg" width="60" height="45" viewBox="0 0 60 45">
  <g id="Grupo_1" data-name="Grupo 1">
    <path id="Trazado_1" data-name="Trazado 1" d="M59.949,107.39c-.2-16.679-14.58-30.263-32.471-30.869V67.75A3.753,3.753,0,0,0,23.731,64a3.7,3.7,0,0,0-2.522,1S5.408,79.632.864,84.193a3.512,3.512,0,0,0,0,4.613C5.408,93.367,21.208,108,21.208,108a3.7,3.7,0,0,0,2.522,1,3.753,3.753,0,0,0,3.747-3.75V96.508c17.986.253,29.976,5.93,29.976,11.241A1.249,1.249,0,0,0,58.7,109a.214.214,0,0,0,.049,0,1.254,1.254,0,0,0,1.2-1.609Z" transform="translate(0 -64)" fill="#f05454"/>
  </g>
</svg>
